<?xml version="1.0" encoding="UTF-8" standalone="no"?>
<!DOCTYPE svg PUBLIC "-//W3C//DTD SVG 1.1//EN"
 "http://www.w3.org/Graphics/SVG/1.1/DTD/svg11.dtd">
<!-- Generated by graphviz version 2.42.3 (0)
 -->
<!-- Title: complete Pages: 1 -->
<svg width="240pt" height="78pt"
 viewBox="0.00 0.00 240.00 77.50" xmlns="http://www.w3.org/2000/svg" xmlns:xlink="http://www.w3.org/1999/xlink">
<g id="graph0" class="graph" transform="scale(1 1) rotate(0) translate(4 73.5)">
<title>complete</title>
<polygon fill="white" stroke="transparent" points="-4,4 -4,-73.5 236,-73.5 236,4 -4,4"/>
<!-- Node1 -->
<g id="node1" class="node">
<title>Node1</title>
<g id="a_node1"><a xlink:title=" ">
<polygon fill="#bfbfbf" stroke="black" points="0,-28 0,-47 62,-47 62,-28 0,-28"/>
<text text-anchor="middle" x="31" y="-35" font-family="Helvetica,sans-Serif" font-size="10.00">complete</text>
</a>
</g>
</g>
<!-- Node2 -->
<g id="node2" class="node">
<title>Node2</title>
<g id="a_node2"><a xlink:href="classdata__structure_1_1trie.html#a4cbd3e340fa4029d8ec49782b50b2fe5" target="_top" xlink:title=" ">
<polygon fill="white" stroke="black" points="98,-50 98,-69 232,-69 232,-50 98,-50"/>
<text text-anchor="middle" x="165" y="-57" font-family="Helvetica,sans-Serif" font-size="10.00">data_structure::trie::end</text>
</a>
</g>
</g>
<!-- Node1&#45;&gt;Node2 -->
<g id="edge1" class="edge">
<title>Node1&#45;&gt;Node2</title>
<path fill="none" stroke="midnightblue" d="M62.28,-42.55C72.63,-44.27 84.65,-46.28 96.73,-48.29"/>
<polygon fill="midnightblue" stroke="midnightblue" points="96.42,-51.78 106.86,-49.98 97.57,-44.88 96.42,-51.78"/>
</g>
<!-- Node3 -->
<g id="node3" class="node">
<title>Node3</title>
<g id="a_node3"><a xlink:href="classdata__structure_1_1trie.html#ac112f02f31e1b41dee827a4a66740ba4" target="_top" xlink:title=" ">
<polygon fill="white" stroke="black" points="110,-0.5 110,-30.5 220,-30.5 220,-0.5 110,-0.5"/>
<text text-anchor="start" x="118" y="-18.5" font-family="Helvetica,sans-Serif" font-size="10.00">data_structure::trie</text>
<text text-anchor="middle" x="165" y="-7.5" font-family="Helvetica,sans-Serif" font-size="10.00">::find_prefix</text>
</a>
</g>
</g>
<!-- Node1&#45;&gt;Node3 -->
<g id="edge2" class="edge">
<title>Node1&#45;&gt;Node3</title>
<path fill="none" stroke="midnightblue" d="M62.28,-32.45C73.5,-30.58 86.7,-28.38 99.79,-26.2"/>
<polygon fill="midnightblue" stroke="midnightblue" points="100.47,-29.64 109.76,-24.54 99.32,-22.73 100.47,-29.64"/>
</g>
</g>
</svg>
