<?xml version="1.0" encoding="UTF-8" standalone="no"?>
<!DOCTYPE svg PUBLIC "-//W3C//DTD SVG 1.1//EN"
 "http://www.w3.org/Graphics/SVG/1.1/DTD/svg11.dtd">
<!-- Generated by graphviz version 2.42.3 (0)
 -->
<!-- Title: insert Pages: 1 -->
<svg width="221pt" height="160pt"
 viewBox="0.00 0.00 221.00 159.50" xmlns="http://www.w3.org/2000/svg" xmlns:xlink="http://www.w3.org/1999/xlink">
<g id="graph0" class="graph" transform="scale(1 1) rotate(0) translate(4 155.5)">
<title>insert</title>
<polygon fill="white" stroke="transparent" points="-4,4 -4,-155.5 217,-155.5 217,4 -4,4"/>
<!-- Node1 -->
<g id="node1" class="node">
<title>Node1</title>
<g id="a_node1"><a xlink:title=" ">
<polygon fill="#bfbfbf" stroke="black" points="169,-71.5 169,-90.5 213,-90.5 213,-71.5 169,-71.5"/>
<text text-anchor="middle" x="191" y="-78.5" font-family="Helvetica,sans-Serif" font-size="10.00">insert</text>
</a>
</g>
</g>
<!-- Node2 -->
<g id="node2" class="node">
<title>Node2</title>
<g id="a_node2"><a xlink:href="classsolver_1_1completor.html#a1a017af6eb755b5c83e70f61e2bda2c7" target="_top" xlink:title=" ">
<polygon fill="white" stroke="black" points="12.5,-121 12.5,-151 120.5,-151 120.5,-121 12.5,-121"/>
<text text-anchor="start" x="20.5" y="-139" font-family="Helvetica,sans-Serif" font-size="10.00">solver::completor::</text>
<text text-anchor="middle" x="66.5" y="-128" font-family="Helvetica,sans-Serif" font-size="10.00">insert</text>
</a>
</g>
</g>
<!-- Node1&#45;&gt;Node2 -->
<g id="edge1" class="edge">
<title>Node1&#45;&gt;Node2</title>
<path fill="none" stroke="midnightblue" d="M164.01,-95.52C154.39,-100.67 143.32,-106.34 133,-111 125.46,-114.41 117.3,-117.77 109.39,-120.87"/>
<polygon fill="midnightblue" stroke="midnightblue" points="165.94,-98.45 173.06,-90.6 162.6,-92.3 165.94,-98.45"/>
</g>
<!-- Node3 -->
<g id="node3" class="node">
<title>Node3</title>
<g id="a_node3"><a xlink:href="classdata__structure_1_1trie.html#a9e17ec7d84e61861f5aa10257a93bf01" target="_top" xlink:title=" ">
<polygon fill="white" stroke="black" points="0,-60.5 0,-101.5 133,-101.5 133,-60.5 0,-60.5"/>
<text text-anchor="start" x="8" y="-89.5" font-family="Helvetica,sans-Serif" font-size="10.00">data_structure::trie</text>
<text text-anchor="start" x="8" y="-78.5" font-family="Helvetica,sans-Serif" font-size="10.00">&lt; _min_key, _max_key,</text>
<text text-anchor="middle" x="66.5" y="-67.5" font-family="Helvetica,sans-Serif" font-size="10.00"> size_t &gt;::insert</text>
</a>
</g>
</g>
<!-- Node1&#45;&gt;Node3 -->
<g id="edge2" class="edge">
<title>Node1&#45;&gt;Node3</title>
<path fill="none" stroke="midnightblue" d="M158.75,-81C150.82,-81 142,-81 133.06,-81"/>
<polygon fill="midnightblue" stroke="midnightblue" points="158.94,-84.5 168.94,-81 158.94,-77.5 158.94,-84.5"/>
</g>
<!-- Node4 -->
<g id="node4" class="node">
<title>Node4</title>
<g id="a_node4"><a xlink:href="classdata__structure_1_1trie.html#a9a37a46848bdcf0290ae75c14cbab9b8" target="_top" xlink:title=" ">
<polygon fill="white" stroke="black" points="0,-0.5 0,-41.5 133,-41.5 133,-0.5 0,-0.5"/>
<text text-anchor="start" x="8" y="-29.5" font-family="Helvetica,sans-Serif" font-size="10.00">data_structure::trie</text>
<text text-anchor="start" x="8" y="-18.5" font-family="Helvetica,sans-Serif" font-size="10.00">&lt; _min_key, _max_key,</text>
<text text-anchor="middle" x="66.5" y="-7.5" font-family="Helvetica,sans-Serif" font-size="10.00"> size_t &gt;::operator[]</text>
</a>
</g>
</g>
<!-- Node1&#45;&gt;Node4 -->
<g id="edge3" class="edge">
<title>Node1&#45;&gt;Node4</title>
<path fill="none" stroke="midnightblue" d="M163.41,-66.62C153.87,-61.56 143.01,-55.92 133,-51 126.71,-47.91 120.04,-44.74 113.46,-41.66"/>
<polygon fill="midnightblue" stroke="midnightblue" points="161.94,-69.8 172.41,-71.42 165.24,-63.63 161.94,-69.8"/>
</g>
</g>
</svg>
