<?xml version="1.0" encoding="UTF-8" standalone="no"?>
<!DOCTYPE svg PUBLIC "-//W3C//DTD SVG 1.1//EN"
 "http://www.w3.org/Graphics/SVG/1.1/DTD/svg11.dtd">
<!-- Generated by graphviz version 2.42.3 (0)
 -->
<!-- Title: src/completor.cpp Pages: 1 -->
<svg width="299pt" height="196pt"
 viewBox="0.00 0.00 299.45 196.00" xmlns="http://www.w3.org/2000/svg" xmlns:xlink="http://www.w3.org/1999/xlink">
<g id="graph0" class="graph" transform="scale(1 1) rotate(0) translate(4 192)">
<title>src/completor.cpp</title>
<polygon fill="white" stroke="transparent" points="-4,4 -4,-192 295.45,-192 295.45,4 -4,4"/>
<!-- Node1 -->
<g id="node1" class="node">
<title>Node1</title>
<g id="a_node1"><a xlink:title=" ">
<polygon fill="#bfbfbf" stroke="black" points="20.95,-168.5 20.95,-187.5 123.95,-187.5 123.95,-168.5 20.95,-168.5"/>
<text text-anchor="middle" x="72.45" y="-175.5" font-family="Helvetica,sans-Serif" font-size="10.00">src/completor.cpp</text>
</a>
</g>
</g>
<!-- Node2 -->
<g id="node2" class="node">
<title>Node2</title>
<g id="a_node2"><a xlink:title=" ">
<polygon fill="white" stroke="#bfbfbf" points="63.95,-0.5 63.95,-19.5 110.95,-19.5 110.95,-0.5 63.95,-0.5"/>
<text text-anchor="middle" x="87.45" y="-7.5" font-family="Helvetica,sans-Serif" font-size="10.00">vector</text>
</a>
</g>
</g>
<!-- Node1&#45;&gt;Node2 -->
<g id="edge1" class="edge">
<title>Node1&#45;&gt;Node2</title>
<path fill="none" stroke="midnightblue" d="M61.24,-168.38C36.66,-148.4 -17.94,-97.45 6.45,-56 16.68,-38.61 36.32,-27.46 53.7,-20.61"/>
<polygon fill="midnightblue" stroke="midnightblue" points="55.36,-23.74 63.58,-17.06 52.99,-17.15 55.36,-23.74"/>
</g>
<!-- Node3 -->
<g id="node3" class="node">
<title>Node3</title>
<g id="a_node3"><a xlink:title=" ">
<polygon fill="white" stroke="#bfbfbf" points="15.45,-56.5 15.45,-75.5 59.45,-75.5 59.45,-56.5 15.45,-56.5"/>
<text text-anchor="middle" x="37.45" y="-63.5" font-family="Helvetica,sans-Serif" font-size="10.00">string</text>
</a>
</g>
</g>
<!-- Node1&#45;&gt;Node3 -->
<g id="edge2" class="edge">
<title>Node1&#45;&gt;Node3</title>
<path fill="none" stroke="midnightblue" d="M69.24,-168.42C65.9,-159.41 60.59,-144.78 56.45,-132 51.42,-116.44 46.24,-98.61 42.57,-85.56"/>
<polygon fill="midnightblue" stroke="midnightblue" points="45.93,-84.57 39.87,-75.88 39.19,-86.45 45.93,-84.57"/>
</g>
<!-- Node4 -->
<g id="node4" class="node">
<title>Node4</title>
<g id="a_node4"><a xlink:title=" ">
<polygon fill="white" stroke="#bfbfbf" points="227.45,-0.5 227.45,-19.5 291.45,-19.5 291.45,-0.5 227.45,-0.5"/>
<text text-anchor="middle" x="259.45" y="-7.5" font-family="Helvetica,sans-Serif" font-size="10.00">algorithm</text>
</a>
</g>
</g>
<!-- Node1&#45;&gt;Node4 -->
<g id="edge3" class="edge">
<title>Node1&#45;&gt;Node4</title>
<path fill="none" stroke="midnightblue" d="M99.58,-168.41C137.34,-154.99 205.04,-125.36 240.45,-76 250.19,-62.42 254.98,-43.87 257.3,-30.06"/>
<polygon fill="midnightblue" stroke="midnightblue" points="260.82,-30.18 258.73,-19.8 253.88,-29.22 260.82,-30.18"/>
</g>
<!-- Node5 -->
<g id="node5" class="node">
<title>Node5</title>
<g id="a_node5"><a xlink:href="completor_8hpp.html" target="_top" xlink:title=" ">
<polygon fill="white" stroke="black" points="65.45,-112.5 65.45,-131.5 151.45,-131.5 151.45,-112.5 65.45,-112.5"/>
<text text-anchor="middle" x="108.45" y="-119.5" font-family="Helvetica,sans-Serif" font-size="10.00">completor.hpp</text>
</a>
</g>
</g>
<!-- Node1&#45;&gt;Node5 -->
<g id="edge4" class="edge">
<title>Node1&#45;&gt;Node5</title>
<path fill="none" stroke="midnightblue" d="M78.4,-168.08C83.43,-160.53 90.79,-149.49 96.96,-140.23"/>
<polygon fill="midnightblue" stroke="midnightblue" points="99.98,-142.01 102.62,-131.75 94.16,-138.13 99.98,-142.01"/>
</g>
<!-- Node5&#45;&gt;Node2 -->
<g id="edge6" class="edge">
<title>Node5&#45;&gt;Node2</title>
<path fill="none" stroke="midnightblue" d="M106.8,-112.37C103.41,-94.62 95.6,-53.67 91,-29.6"/>
<polygon fill="midnightblue" stroke="midnightblue" points="94.4,-28.76 89.09,-19.59 87.53,-30.07 94.4,-28.76"/>
</g>
<!-- Node5&#45;&gt;Node3 -->
<g id="edge7" class="edge">
<title>Node5&#45;&gt;Node3</title>
<path fill="none" stroke="midnightblue" d="M97.04,-112.32C86.34,-104.18 70.11,-91.84 57.29,-82.09"/>
<polygon fill="midnightblue" stroke="midnightblue" points="59.14,-79.1 49.07,-75.83 54.91,-84.67 59.14,-79.1"/>
</g>
<!-- Node6 -->
<g id="node6" class="node">
<title>Node6</title>
<g id="a_node6"><a xlink:title=" ">
<polygon fill="white" stroke="#bfbfbf" points="115.45,-56.5 115.45,-75.5 159.45,-75.5 159.45,-56.5 115.45,-56.5"/>
<text text-anchor="middle" x="137.45" y="-63.5" font-family="Helvetica,sans-Serif" font-size="10.00">limits</text>
</a>
</g>
</g>
<!-- Node5&#45;&gt;Node6 -->
<g id="edge5" class="edge">
<title>Node5&#45;&gt;Node6</title>
<path fill="none" stroke="midnightblue" d="M113.24,-112.08C117.21,-104.69 122.98,-93.95 127.89,-84.81"/>
<polygon fill="midnightblue" stroke="midnightblue" points="131.1,-86.22 132.75,-75.75 124.94,-82.91 131.1,-86.22"/>
</g>
<!-- Node7 -->
<g id="node7" class="node">
<title>Node7</title>
<g id="a_node7"><a xlink:href="trie_8hpp.html" target="_top" xlink:title=" ">
<polygon fill="white" stroke="black" points="177.45,-56.5 177.45,-75.5 231.45,-75.5 231.45,-56.5 177.45,-56.5"/>
<text text-anchor="middle" x="204.45" y="-63.5" font-family="Helvetica,sans-Serif" font-size="10.00">trie.hpp</text>
</a>
</g>
</g>
<!-- Node5&#45;&gt;Node7 -->
<g id="edge8" class="edge">
<title>Node5&#45;&gt;Node7</title>
<path fill="none" stroke="midnightblue" d="M123.87,-112.32C138.99,-103.82 162.27,-90.73 179.92,-80.8"/>
<polygon fill="midnightblue" stroke="midnightblue" points="182.06,-83.61 189.06,-75.65 178.63,-77.51 182.06,-83.61"/>
</g>
<!-- Node7&#45;&gt;Node2 -->
<g id="edge9" class="edge">
<title>Node7&#45;&gt;Node2</title>
<path fill="none" stroke="midnightblue" d="M185.91,-56.44C166.83,-47.64 136.88,-33.81 115.01,-23.72"/>
<polygon fill="midnightblue" stroke="midnightblue" points="116.45,-20.53 105.9,-19.52 113.52,-26.88 116.45,-20.53"/>
</g>
<!-- Node7&#45;&gt;Node4 -->
<g id="edge11" class="edge">
<title>Node7&#45;&gt;Node4</title>
<path fill="none" stroke="midnightblue" d="M213.53,-56.08C221.62,-48.14 233.65,-36.34 243.36,-26.8"/>
<polygon fill="midnightblue" stroke="midnightblue" points="245.85,-29.25 250.54,-19.75 240.95,-24.26 245.85,-29.25"/>
</g>
<!-- Node8 -->
<g id="node8" class="node">
<title>Node8</title>
<g id="a_node8"><a xlink:title=" ">
<polygon fill="white" stroke="#bfbfbf" points="155.95,-0.5 155.95,-19.5 208.95,-19.5 208.95,-0.5 155.95,-0.5"/>
<text text-anchor="middle" x="182.45" y="-7.5" font-family="Helvetica,sans-Serif" font-size="10.00">iterator</text>
</a>
</g>
</g>
<!-- Node7&#45;&gt;Node8 -->
<g id="edge10" class="edge">
<title>Node7&#45;&gt;Node8</title>
<path fill="none" stroke="midnightblue" d="M200.82,-56.08C197.84,-48.77 193.52,-38.18 189.83,-29.1"/>
<polygon fill="midnightblue" stroke="midnightblue" points="193.03,-27.69 186.02,-19.75 186.55,-30.33 193.03,-27.69"/>
</g>
</g>
</svg>
