<?xml version="1.0" encoding="UTF-8" standalone="no"?>
<!DOCTYPE svg PUBLIC "-//W3C//DTD SVG 1.1//EN"
 "http://www.w3.org/Graphics/SVG/1.1/DTD/svg11.dtd">
<!-- Generated by graphviz version 2.42.3 (0)
 -->
<!-- Title: src/completor.hpp Pages: 1 -->
<svg width="293pt" height="140pt"
 viewBox="0.00 0.00 293.00 140.00" xmlns="http://www.w3.org/2000/svg" xmlns:xlink="http://www.w3.org/1999/xlink">
<g id="graph0" class="graph" transform="scale(1 1) rotate(0) translate(4 136)">
<title>src/completor.hpp</title>
<polygon fill="white" stroke="transparent" points="-4,4 -4,-136 289,-136 289,4 -4,4"/>
<!-- Node1 -->
<g id="node1" class="node">
<title>Node1</title>
<g id="a_node1"><a xlink:title=" ">
<polygon fill="#bfbfbf" stroke="black" points="45,-112.5 45,-131.5 149,-131.5 149,-112.5 45,-112.5"/>
<text text-anchor="middle" x="97" y="-119.5" font-family="Helvetica,sans-Serif" font-size="10.00">src/completor.hpp</text>
</a>
</g>
</g>
<!-- Node2 -->
<g id="node2" class="node">
<title>Node2</title>
<g id="a_node2"><a xlink:title=" ">
<polygon fill="white" stroke="#bfbfbf" points="0,-56.5 0,-75.5 44,-75.5 44,-56.5 0,-56.5"/>
<text text-anchor="middle" x="22" y="-63.5" font-family="Helvetica,sans-Serif" font-size="10.00">limits</text>
</a>
</g>
</g>
<!-- Node1&#45;&gt;Node2 -->
<g id="edge1" class="edge">
<title>Node1&#45;&gt;Node2</title>
<path fill="none" stroke="midnightblue" d="M84.95,-112.32C73.54,-104.11 56.17,-91.6 42.57,-81.81"/>
<polygon fill="midnightblue" stroke="midnightblue" points="44.43,-78.84 34.27,-75.83 40.34,-84.52 44.43,-78.84"/>
</g>
<!-- Node3 -->
<g id="node3" class="node">
<title>Node3</title>
<g id="a_node3"><a xlink:title=" ">
<polygon fill="white" stroke="#bfbfbf" points="72.5,-0.5 72.5,-19.5 119.5,-19.5 119.5,-0.5 72.5,-0.5"/>
<text text-anchor="middle" x="96" y="-7.5" font-family="Helvetica,sans-Serif" font-size="10.00">vector</text>
</a>
</g>
</g>
<!-- Node1&#45;&gt;Node3 -->
<g id="edge2" class="edge">
<title>Node1&#45;&gt;Node3</title>
<path fill="none" stroke="midnightblue" d="M95.51,-112.41C94.02,-103.38 91.85,-88.74 91,-76 89.97,-60.45 91.49,-42.83 93.12,-29.86"/>
<polygon fill="midnightblue" stroke="midnightblue" points="96.61,-30.21 94.52,-19.83 89.67,-29.25 96.61,-30.21"/>
</g>
<!-- Node4 -->
<g id="node4" class="node">
<title>Node4</title>
<g id="a_node4"><a xlink:title=" ">
<polygon fill="white" stroke="#bfbfbf" points="100,-56.5 100,-75.5 144,-75.5 144,-56.5 100,-56.5"/>
<text text-anchor="middle" x="122" y="-63.5" font-family="Helvetica,sans-Serif" font-size="10.00">string</text>
</a>
</g>
</g>
<!-- Node1&#45;&gt;Node4 -->
<g id="edge3" class="edge">
<title>Node1&#45;&gt;Node4</title>
<path fill="none" stroke="midnightblue" d="M101.13,-112.08C104.51,-104.77 109.42,-94.18 113.62,-85.1"/>
<polygon fill="midnightblue" stroke="midnightblue" points="116.92,-86.3 117.95,-75.75 110.57,-83.36 116.92,-86.3"/>
</g>
<!-- Node5 -->
<g id="node5" class="node">
<title>Node5</title>
<g id="a_node5"><a xlink:href="trie_8hpp.html" target="_top" xlink:title=" ">
<polygon fill="white" stroke="black" points="162,-56.5 162,-75.5 216,-75.5 216,-56.5 162,-56.5"/>
<text text-anchor="middle" x="189" y="-63.5" font-family="Helvetica,sans-Serif" font-size="10.00">trie.hpp</text>
</a>
</g>
</g>
<!-- Node1&#45;&gt;Node5 -->
<g id="edge4" class="edge">
<title>Node1&#45;&gt;Node5</title>
<path fill="none" stroke="midnightblue" d="M111.78,-112.32C126.27,-103.82 148.57,-90.73 165.49,-80.8"/>
<polygon fill="midnightblue" stroke="midnightblue" points="167.4,-83.74 174.26,-75.65 163.86,-77.7 167.4,-83.74"/>
</g>
<!-- Node5&#45;&gt;Node3 -->
<g id="edge5" class="edge">
<title>Node5&#45;&gt;Node3</title>
<path fill="none" stroke="midnightblue" d="M174.06,-56.32C159.41,-47.82 136.87,-34.73 119.76,-24.8"/>
<polygon fill="midnightblue" stroke="midnightblue" points="121.31,-21.65 110.9,-19.65 117.8,-27.7 121.31,-21.65"/>
</g>
<!-- Node6 -->
<g id="node6" class="node">
<title>Node6</title>
<g id="a_node6"><a xlink:title=" ">
<polygon fill="white" stroke="#bfbfbf" points="149.5,-0.5 149.5,-19.5 202.5,-19.5 202.5,-0.5 149.5,-0.5"/>
<text text-anchor="middle" x="176" y="-7.5" font-family="Helvetica,sans-Serif" font-size="10.00">iterator</text>
</a>
</g>
</g>
<!-- Node5&#45;&gt;Node6 -->
<g id="edge6" class="edge">
<title>Node5&#45;&gt;Node6</title>
<path fill="none" stroke="midnightblue" d="M186.85,-56.08C185.13,-48.93 182.65,-38.64 180.5,-29.69"/>
<polygon fill="midnightblue" stroke="midnightblue" points="183.85,-28.65 178.11,-19.75 177.04,-30.29 183.85,-28.65"/>
</g>
<!-- Node7 -->
<g id="node7" class="node">
<title>Node7</title>
<g id="a_node7"><a xlink:title=" ">
<polygon fill="white" stroke="#bfbfbf" points="221,-0.5 221,-19.5 285,-19.5 285,-0.5 221,-0.5"/>
<text text-anchor="middle" x="253" y="-7.5" font-family="Helvetica,sans-Serif" font-size="10.00">algorithm</text>
</a>
</g>
</g>
<!-- Node5&#45;&gt;Node7 -->
<g id="edge7" class="edge">
<title>Node5&#45;&gt;Node7</title>
<path fill="none" stroke="midnightblue" d="M199.28,-56.32C208.84,-48.26 223.28,-36.08 234.78,-26.37"/>
<polygon fill="midnightblue" stroke="midnightblue" points="237.14,-28.96 242.53,-19.83 232.63,-23.61 237.14,-28.96"/>
</g>
</g>
</svg>
