<?xml version="1.0" encoding="UTF-8" standalone="no"?>
<!DOCTYPE svg PUBLIC "-//W3C//DTD SVG 1.1//EN"
 "http://www.w3.org/Graphics/SVG/1.1/DTD/svg11.dtd">
<!-- Generated by graphviz version 2.42.3 (0)
 -->
<!-- Title: src/main.cpp Pages: 1 -->
<svg width="299pt" height="196pt"
 viewBox="0.00 0.00 299.34 196.00" xmlns="http://www.w3.org/2000/svg" xmlns:xlink="http://www.w3.org/1999/xlink">
<g id="graph0" class="graph" transform="scale(1 1) rotate(0) translate(4 192)">
<title>src/main.cpp</title>
<polygon fill="white" stroke="transparent" points="-4,4 -4,-192 295.34,-192 295.34,4 -4,4"/>
<!-- Node1 -->
<g id="node1" class="node">
<title>Node1</title>
<g id="a_node1"><a xlink:title=" ">
<polygon fill="#bfbfbf" stroke="black" points="43.84,-168.5 43.84,-187.5 122.84,-187.5 122.84,-168.5 43.84,-168.5"/>
<text text-anchor="middle" x="83.34" y="-175.5" font-family="Helvetica,sans-Serif" font-size="10.00">src/main.cpp</text>
</a>
</g>
</g>
<!-- Node2 -->
<g id="node2" class="node">
<title>Node2</title>
<g id="a_node2"><a xlink:title=" ">
<polygon fill="white" stroke="#bfbfbf" points="63.84,-0.5 63.84,-19.5 110.84,-19.5 110.84,-0.5 63.84,-0.5"/>
<text text-anchor="middle" x="87.34" y="-7.5" font-family="Helvetica,sans-Serif" font-size="10.00">vector</text>
</a>
</g>
</g>
<!-- Node1&#45;&gt;Node2 -->
<g id="edge1" class="edge">
<title>Node1&#45;&gt;Node2</title>
<path fill="none" stroke="midnightblue" d="M70.27,-168.32C42.29,-148.63 -18.91,-98.92 6.34,-56 16.57,-38.61 36.21,-27.46 53.59,-20.61"/>
<polygon fill="midnightblue" stroke="midnightblue" points="55.25,-23.74 63.47,-17.06 52.88,-17.15 55.25,-23.74"/>
</g>
<!-- Node3 -->
<g id="node3" class="node">
<title>Node3</title>
<g id="a_node3"><a xlink:title=" ">
<polygon fill="white" stroke="#bfbfbf" points="15.34,-56.5 15.34,-75.5 59.34,-75.5 59.34,-56.5 15.34,-56.5"/>
<text text-anchor="middle" x="37.34" y="-63.5" font-family="Helvetica,sans-Serif" font-size="10.00">string</text>
</a>
</g>
</g>
<!-- Node1&#45;&gt;Node3 -->
<g id="edge2" class="edge">
<title>Node1&#45;&gt;Node3</title>
<path fill="none" stroke="midnightblue" d="M72.73,-168.21C63.52,-159.92 50.7,-146.6 44.34,-132 38.03,-117.51 36.51,-99.56 36.44,-86.19"/>
<polygon fill="midnightblue" stroke="midnightblue" points="39.95,-85.91 36.67,-75.83 32.95,-85.75 39.95,-85.91"/>
</g>
<!-- Node4 -->
<g id="node4" class="node">
<title>Node4</title>
<g id="a_node4"><a xlink:title=" ">
<polygon fill="white" stroke="#bfbfbf" points="53.34,-112.5 53.34,-131.5 113.34,-131.5 113.34,-112.5 53.34,-112.5"/>
<text text-anchor="middle" x="83.34" y="-119.5" font-family="Helvetica,sans-Serif" font-size="10.00">iostream</text>
</a>
</g>
</g>
<!-- Node1&#45;&gt;Node4 -->
<g id="edge3" class="edge">
<title>Node1&#45;&gt;Node4</title>
<path fill="none" stroke="midnightblue" d="M83.34,-168.08C83.34,-161.01 83.34,-150.86 83.34,-141.99"/>
<polygon fill="midnightblue" stroke="midnightblue" points="86.84,-141.75 83.34,-131.75 79.84,-141.75 86.84,-141.75"/>
</g>
<!-- Node5 -->
<g id="node5" class="node">
<title>Node5</title>
<g id="a_node5"><a xlink:title=" ">
<polygon fill="white" stroke="#bfbfbf" points="227.34,-0.5 227.34,-19.5 291.34,-19.5 291.34,-0.5 227.34,-0.5"/>
<text text-anchor="middle" x="259.34" y="-7.5" font-family="Helvetica,sans-Serif" font-size="10.00">algorithm</text>
</a>
</g>
</g>
<!-- Node1&#45;&gt;Node5 -->
<g id="edge4" class="edge">
<title>Node1&#45;&gt;Node5</title>
<path fill="none" stroke="midnightblue" d="M122.99,-174.67C155.13,-170.68 199.36,-160.04 226.34,-132 253.3,-103.98 258.7,-56.17 259.51,-29.82"/>
<polygon fill="midnightblue" stroke="midnightblue" points="263.01,-29.7 259.62,-19.66 256.01,-29.63 263.01,-29.7"/>
</g>
<!-- Node6 -->
<g id="node6" class="node">
<title>Node6</title>
<g id="a_node6"><a xlink:href="completor_8hpp.html" target="_top" xlink:title=" ">
<polygon fill="white" stroke="black" points="131.34,-112.5 131.34,-131.5 217.34,-131.5 217.34,-112.5 131.34,-112.5"/>
<text text-anchor="middle" x="174.34" y="-119.5" font-family="Helvetica,sans-Serif" font-size="10.00">completor.hpp</text>
</a>
</g>
</g>
<!-- Node1&#45;&gt;Node6 -->
<g id="edge5" class="edge">
<title>Node1&#45;&gt;Node6</title>
<path fill="none" stroke="midnightblue" d="M97.96,-168.32C112.29,-159.82 134.35,-146.73 151.09,-136.8"/>
<polygon fill="midnightblue" stroke="midnightblue" points="152.94,-139.77 159.76,-131.65 149.37,-133.75 152.94,-139.77"/>
</g>
<!-- Node6&#45;&gt;Node2 -->
<g id="edge7" class="edge">
<title>Node6&#45;&gt;Node2</title>
<path fill="none" stroke="midnightblue" d="M154.26,-112.43C139,-104.93 118.61,-92.64 106.34,-76 96.42,-62.54 91.66,-43.98 89.39,-30.14"/>
<polygon fill="midnightblue" stroke="midnightblue" points="92.8,-29.28 88,-19.84 85.86,-30.21 92.8,-29.28"/>
</g>
<!-- Node6&#45;&gt;Node3 -->
<g id="edge8" class="edge">
<title>Node6&#45;&gt;Node3</title>
<path fill="none" stroke="midnightblue" d="M152.63,-112.44C129.99,-103.52 94.27,-89.44 68.59,-79.32"/>
<polygon fill="midnightblue" stroke="midnightblue" points="69.53,-75.93 58.95,-75.52 66.97,-82.44 69.53,-75.93"/>
</g>
<!-- Node7 -->
<g id="node7" class="node">
<title>Node7</title>
<g id="a_node7"><a xlink:title=" ">
<polygon fill="white" stroke="#bfbfbf" points="115.34,-56.5 115.34,-75.5 159.34,-75.5 159.34,-56.5 115.34,-56.5"/>
<text text-anchor="middle" x="137.34" y="-63.5" font-family="Helvetica,sans-Serif" font-size="10.00">limits</text>
</a>
</g>
</g>
<!-- Node6&#45;&gt;Node7 -->
<g id="edge6" class="edge">
<title>Node6&#45;&gt;Node7</title>
<path fill="none" stroke="midnightblue" d="M168.23,-112.08C163.06,-104.53 155.49,-93.49 149.15,-84.23"/>
<polygon fill="midnightblue" stroke="midnightblue" points="151.88,-82.02 143.34,-75.75 146.1,-85.98 151.88,-82.02"/>
</g>
<!-- Node8 -->
<g id="node8" class="node">
<title>Node8</title>
<g id="a_node8"><a xlink:href="trie_8hpp.html" target="_top" xlink:title=" ">
<polygon fill="white" stroke="black" points="177.34,-56.5 177.34,-75.5 231.34,-75.5 231.34,-56.5 177.34,-56.5"/>
<text text-anchor="middle" x="204.34" y="-63.5" font-family="Helvetica,sans-Serif" font-size="10.00">trie.hpp</text>
</a>
</g>
</g>
<!-- Node6&#45;&gt;Node8 -->
<g id="edge9" class="edge">
<title>Node6&#45;&gt;Node8</title>
<path fill="none" stroke="midnightblue" d="M179.29,-112.08C183.44,-104.61 189.49,-93.72 194.61,-84.52"/>
<polygon fill="midnightblue" stroke="midnightblue" points="197.68,-86.19 199.48,-75.75 191.56,-82.79 197.68,-86.19"/>
</g>
<!-- Node8&#45;&gt;Node2 -->
<g id="edge10" class="edge">
<title>Node8&#45;&gt;Node2</title>
<path fill="none" stroke="midnightblue" d="M185.8,-56.44C166.72,-47.64 136.77,-33.81 114.9,-23.72"/>
<polygon fill="midnightblue" stroke="midnightblue" points="116.34,-20.53 105.79,-19.52 113.41,-26.88 116.34,-20.53"/>
</g>
<!-- Node8&#45;&gt;Node5 -->
<g id="edge12" class="edge">
<title>Node8&#45;&gt;Node5</title>
<path fill="none" stroke="midnightblue" d="M213.42,-56.08C221.51,-48.14 233.54,-36.34 243.25,-26.8"/>
<polygon fill="midnightblue" stroke="midnightblue" points="245.74,-29.25 250.43,-19.75 240.84,-24.26 245.74,-29.25"/>
</g>
<!-- Node9 -->
<g id="node9" class="node">
<title>Node9</title>
<g id="a_node9"><a xlink:title=" ">
<polygon fill="white" stroke="#bfbfbf" points="155.84,-0.5 155.84,-19.5 208.84,-19.5 208.84,-0.5 155.84,-0.5"/>
<text text-anchor="middle" x="182.34" y="-7.5" font-family="Helvetica,sans-Serif" font-size="10.00">iterator</text>
</a>
</g>
</g>
<!-- Node8&#45;&gt;Node9 -->
<g id="edge11" class="edge">
<title>Node8&#45;&gt;Node9</title>
<path fill="none" stroke="midnightblue" d="M200.71,-56.08C197.73,-48.77 193.41,-38.18 189.72,-29.1"/>
<polygon fill="midnightblue" stroke="midnightblue" points="192.92,-27.69 185.91,-19.75 186.44,-30.33 192.92,-27.69"/>
</g>
</g>
</svg>
