<?xml version="1.0" encoding="UTF-8" standalone="no"?>
<!DOCTYPE svg PUBLIC "-//W3C//DTD SVG 1.1//EN"
 "http://www.w3.org/Graphics/SVG/1.1/DTD/svg11.dtd">
<!-- Generated by graphviz version 2.42.3 (0)
 -->
<!-- Title: answer_queries Pages: 1 -->
<svg width="415pt" height="94pt"
 viewBox="0.00 0.00 415.00 94.00" xmlns="http://www.w3.org/2000/svg" xmlns:xlink="http://www.w3.org/1999/xlink">
<g id="graph0" class="graph" transform="scale(1 1) rotate(0) translate(4 90)">
<title>answer_queries</title>
<polygon fill="white" stroke="transparent" points="-4,4 -4,-90 411,-90 411,4 -4,4"/>
<!-- Node1 -->
<g id="node1" class="node">
<title>Node1</title>
<g id="a_node1"><a xlink:title=" ">
<polygon fill="#bfbfbf" stroke="black" points="0,-22.5 0,-41.5 93,-41.5 93,-22.5 0,-22.5"/>
<text text-anchor="middle" x="46.5" y="-29.5" font-family="Helvetica,sans-Serif" font-size="10.00">answer_queries</text>
</a>
</g>
</g>
<!-- Node2 -->
<g id="node2" class="node">
<title>Node2</title>
<g id="a_node2"><a xlink:href="classsolver_1_1completor.html#adbf2c46ad518567cd36006481221d955" target="_top" xlink:title=" ">
<polygon fill="white" stroke="black" points="129,-39 129,-69 237,-69 237,-39 129,-39"/>
<text text-anchor="start" x="137" y="-57" font-family="Helvetica,sans-Serif" font-size="10.00">solver::completor::</text>
<text text-anchor="middle" x="183" y="-46" font-family="Helvetica,sans-Serif" font-size="10.00">complete</text>
</a>
</g>
</g>
<!-- Node1&#45;&gt;Node2 -->
<g id="edge1" class="edge">
<title>Node1&#45;&gt;Node2</title>
<path fill="none" stroke="midnightblue" d="M93.04,-39.45C101.25,-40.79 109.95,-42.22 118.57,-43.62"/>
<polygon fill="midnightblue" stroke="midnightblue" points="118.18,-47.11 128.61,-45.27 119.31,-40.2 118.18,-47.11"/>
</g>
<!-- Node5 -->
<g id="node5" class="node">
<title>Node5</title>
<g id="a_node5"><a xlink:href="main_8cpp.html#ab5741a1673125e7efe644ebd211a34f2" target="_top" xlink:title=" ">
<polygon fill="white" stroke="black" points="146.5,-0.5 146.5,-19.5 219.5,-19.5 219.5,-0.5 146.5,-0.5"/>
<text text-anchor="middle" x="183" y="-7.5" font-family="Helvetica,sans-Serif" font-size="10.00">read_words</text>
</a>
</g>
</g>
<!-- Node1&#45;&gt;Node5 -->
<g id="edge4" class="edge">
<title>Node1&#45;&gt;Node5</title>
<path fill="none" stroke="midnightblue" d="M93.04,-24.55C107.02,-22.26 122.4,-19.75 136.39,-17.46"/>
<polygon fill="midnightblue" stroke="midnightblue" points="136.98,-20.91 146.29,-15.84 135.85,-14 136.98,-20.91"/>
</g>
<!-- Node3 -->
<g id="node3" class="node">
<title>Node3</title>
<g id="a_node3"><a xlink:href="classdata__structure_1_1trie.html#a4cbd3e340fa4029d8ec49782b50b2fe5" target="_top" xlink:title=" ">
<polygon fill="white" stroke="black" points="273,-66.5 273,-85.5 407,-85.5 407,-66.5 273,-66.5"/>
<text text-anchor="middle" x="340" y="-73.5" font-family="Helvetica,sans-Serif" font-size="10.00">data_structure::trie::end</text>
</a>
</g>
</g>
<!-- Node2&#45;&gt;Node3 -->
<g id="edge2" class="edge">
<title>Node2&#45;&gt;Node3</title>
<path fill="none" stroke="midnightblue" d="M237.34,-61.57C245.59,-62.74 254.24,-63.97 262.87,-65.19"/>
<polygon fill="midnightblue" stroke="midnightblue" points="262.57,-68.69 272.96,-66.63 263.55,-61.76 262.57,-68.69"/>
</g>
<!-- Node4 -->
<g id="node4" class="node">
<title>Node4</title>
<g id="a_node4"><a xlink:href="classdata__structure_1_1trie.html#ac112f02f31e1b41dee827a4a66740ba4" target="_top" xlink:title=" ">
<polygon fill="white" stroke="black" points="285,-17 285,-47 395,-47 395,-17 285,-17"/>
<text text-anchor="start" x="293" y="-35" font-family="Helvetica,sans-Serif" font-size="10.00">data_structure::trie</text>
<text text-anchor="middle" x="340" y="-24" font-family="Helvetica,sans-Serif" font-size="10.00">::find_prefix</text>
</a>
</g>
</g>
<!-- Node2&#45;&gt;Node4 -->
<g id="edge3" class="edge">
<title>Node2&#45;&gt;Node4</title>
<path fill="none" stroke="midnightblue" d="M237.34,-46.43C249.31,-44.73 262.14,-42.91 274.51,-41.15"/>
<polygon fill="midnightblue" stroke="midnightblue" points="275.36,-44.57 284.77,-39.7 274.38,-37.64 275.36,-44.57"/>
</g>
</g>
</svg>
