<?xml version="1.0" encoding="UTF-8" standalone="no"?>
<!DOCTYPE svg PUBLIC "-//W3C//DTD SVG 1.1//EN"
 "http://www.w3.org/Graphics/SVG/1.1/DTD/svg11.dtd">
<!-- Generated by graphviz version 2.42.3 (0)
 -->
<!-- Title: main Pages: 1 -->
<svg width="492pt" height="94pt"
 viewBox="0.00 0.00 492.00 94.00" xmlns="http://www.w3.org/2000/svg" xmlns:xlink="http://www.w3.org/1999/xlink">
<g id="graph0" class="graph" transform="scale(1 1) rotate(0) translate(4 90)">
<title>main</title>
<polygon fill="white" stroke="transparent" points="-4,4 -4,-90 488,-90 488,4 -4,4"/>
<!-- Node1 -->
<g id="node1" class="node">
<title>Node1</title>
<g id="a_node1"><a xlink:title=" ">
<polygon fill="#bfbfbf" stroke="black" points="0,-22.5 0,-41.5 41,-41.5 41,-22.5 0,-22.5"/>
<text text-anchor="middle" x="20.5" y="-29.5" font-family="Helvetica,sans-Serif" font-size="10.00">main</text>
</a>
</g>
</g>
<!-- Node2 -->
<g id="node2" class="node">
<title>Node2</title>
<g id="a_node2"><a xlink:href="main_8cpp.html#a034a89387138b45dfb1fd2b5a7a3d9cf" target="_top" xlink:title=" ">
<polygon fill="white" stroke="black" points="77,-22.5 77,-41.5 170,-41.5 170,-22.5 77,-22.5"/>
<text text-anchor="middle" x="123.5" y="-29.5" font-family="Helvetica,sans-Serif" font-size="10.00">answer_queries</text>
</a>
</g>
</g>
<!-- Node1&#45;&gt;Node2 -->
<g id="edge1" class="edge">
<title>Node1&#45;&gt;Node2</title>
<path fill="none" stroke="midnightblue" d="M41.45,-32C48.81,-32 57.54,-32 66.51,-32"/>
<polygon fill="midnightblue" stroke="midnightblue" points="66.67,-35.5 76.67,-32 66.67,-28.5 66.67,-35.5"/>
</g>
<!-- Node3 -->
<g id="node3" class="node">
<title>Node3</title>
<g id="a_node3"><a xlink:href="classsolver_1_1completor.html#adbf2c46ad518567cd36006481221d955" target="_top" xlink:title=" ">
<polygon fill="white" stroke="black" points="206,-39 206,-69 314,-69 314,-39 206,-39"/>
<text text-anchor="start" x="214" y="-57" font-family="Helvetica,sans-Serif" font-size="10.00">solver::completor::</text>
<text text-anchor="middle" x="260" y="-46" font-family="Helvetica,sans-Serif" font-size="10.00">complete</text>
</a>
</g>
</g>
<!-- Node2&#45;&gt;Node3 -->
<g id="edge2" class="edge">
<title>Node2&#45;&gt;Node3</title>
<path fill="none" stroke="midnightblue" d="M170.04,-39.45C178.25,-40.79 186.95,-42.22 195.57,-43.62"/>
<polygon fill="midnightblue" stroke="midnightblue" points="195.18,-47.11 205.61,-45.27 196.31,-40.2 195.18,-47.11"/>
</g>
<!-- Node6 -->
<g id="node6" class="node">
<title>Node6</title>
<g id="a_node6"><a xlink:href="main_8cpp.html#ab5741a1673125e7efe644ebd211a34f2" target="_top" xlink:title=" ">
<polygon fill="white" stroke="black" points="223.5,-0.5 223.5,-19.5 296.5,-19.5 296.5,-0.5 223.5,-0.5"/>
<text text-anchor="middle" x="260" y="-7.5" font-family="Helvetica,sans-Serif" font-size="10.00">read_words</text>
</a>
</g>
</g>
<!-- Node2&#45;&gt;Node6 -->
<g id="edge5" class="edge">
<title>Node2&#45;&gt;Node6</title>
<path fill="none" stroke="midnightblue" d="M170.04,-24.55C184.02,-22.26 199.4,-19.75 213.39,-17.46"/>
<polygon fill="midnightblue" stroke="midnightblue" points="213.98,-20.91 223.29,-15.84 212.85,-14 213.98,-20.91"/>
</g>
<!-- Node4 -->
<g id="node4" class="node">
<title>Node4</title>
<g id="a_node4"><a xlink:href="classdata__structure_1_1trie.html#a4cbd3e340fa4029d8ec49782b50b2fe5" target="_top" xlink:title=" ">
<polygon fill="white" stroke="black" points="350,-66.5 350,-85.5 484,-85.5 484,-66.5 350,-66.5"/>
<text text-anchor="middle" x="417" y="-73.5" font-family="Helvetica,sans-Serif" font-size="10.00">data_structure::trie::end</text>
</a>
</g>
</g>
<!-- Node3&#45;&gt;Node4 -->
<g id="edge3" class="edge">
<title>Node3&#45;&gt;Node4</title>
<path fill="none" stroke="midnightblue" d="M314.34,-61.57C322.59,-62.74 331.24,-63.97 339.87,-65.19"/>
<polygon fill="midnightblue" stroke="midnightblue" points="339.57,-68.69 349.96,-66.63 340.55,-61.76 339.57,-68.69"/>
</g>
<!-- Node5 -->
<g id="node5" class="node">
<title>Node5</title>
<g id="a_node5"><a xlink:href="classdata__structure_1_1trie.html#ac112f02f31e1b41dee827a4a66740ba4" target="_top" xlink:title=" ">
<polygon fill="white" stroke="black" points="362,-17 362,-47 472,-47 472,-17 362,-17"/>
<text text-anchor="start" x="370" y="-35" font-family="Helvetica,sans-Serif" font-size="10.00">data_structure::trie</text>
<text text-anchor="middle" x="417" y="-24" font-family="Helvetica,sans-Serif" font-size="10.00">::find_prefix</text>
</a>
</g>
</g>
<!-- Node3&#45;&gt;Node5 -->
<g id="edge4" class="edge">
<title>Node3&#45;&gt;Node5</title>
<path fill="none" stroke="midnightblue" d="M314.34,-46.43C326.31,-44.73 339.14,-42.91 351.51,-41.15"/>
<polygon fill="midnightblue" stroke="midnightblue" points="352.36,-44.57 361.77,-39.7 351.38,-37.64 352.36,-44.57"/>
</g>
</g>
</svg>
