<?xml version="1.0" encoding="UTF-8" standalone="no"?>
<!DOCTYPE svg PUBLIC "-//W3C//DTD SVG 1.1//EN"
 "http://www.w3.org/Graphics/SVG/1.1/DTD/svg11.dtd">
<!-- Generated by graphviz version 2.42.3 (0)
 -->
<!-- Title: src/trie.hpp Pages: 1 -->
<svg width="208pt" height="140pt"
 viewBox="0.00 0.00 208.00 140.00" xmlns="http://www.w3.org/2000/svg" xmlns:xlink="http://www.w3.org/1999/xlink">
<g id="graph0" class="graph" transform="scale(1 1) rotate(0) translate(4 136)">
<title>src/trie.hpp</title>
<polygon fill="white" stroke="transparent" points="-4,4 -4,-136 204,-136 204,4 -4,4"/>
<!-- Node1 -->
<g id="node1" class="node">
<title>Node1</title>
<g id="a_node1"><a xlink:title=" ">
<polygon fill="#bfbfbf" stroke="black" points="70,-112.5 70,-131.5 141,-131.5 141,-112.5 70,-112.5"/>
<text text-anchor="middle" x="105.5" y="-119.5" font-family="Helvetica,sans-Serif" font-size="10.00">src/trie.hpp</text>
</a>
</g>
</g>
<!-- Node2 -->
<g id="node2" class="node">
<title>Node2</title>
<g id="a_node2"><a xlink:href="completor_8hpp.html" target="_top" xlink:title=" ">
<polygon fill="white" stroke="black" points="53.5,-56.5 53.5,-75.5 157.5,-75.5 157.5,-56.5 53.5,-56.5"/>
<text text-anchor="middle" x="105.5" y="-63.5" font-family="Helvetica,sans-Serif" font-size="10.00">src/completor.hpp</text>
</a>
</g>
</g>
<!-- Node1&#45;&gt;Node2 -->
<g id="edge1" class="edge">
<title>Node1&#45;&gt;Node2</title>
<path fill="none" stroke="midnightblue" d="M105.5,-101.8C105.5,-92.91 105.5,-82.78 105.5,-75.75"/>
<polygon fill="midnightblue" stroke="midnightblue" points="102,-102.08 105.5,-112.08 109,-102.08 102,-102.08"/>
</g>
<!-- Node3 -->
<g id="node3" class="node">
<title>Node3</title>
<g id="a_node3"><a xlink:href="completor_8cpp.html" target="_top" xlink:title=" ">
<polygon fill="white" stroke="black" points="0,-0.5 0,-19.5 103,-19.5 103,-0.5 0,-0.5"/>
<text text-anchor="middle" x="51.5" y="-7.5" font-family="Helvetica,sans-Serif" font-size="10.00">src/completor.cpp</text>
</a>
</g>
</g>
<!-- Node2&#45;&gt;Node3 -->
<g id="edge2" class="edge">
<title>Node2&#45;&gt;Node3</title>
<path fill="none" stroke="midnightblue" d="M89.5,-49C79.93,-39.43 68.14,-27.64 60.25,-19.75"/>
<polygon fill="midnightblue" stroke="midnightblue" points="87.04,-51.49 96.58,-56.08 91.99,-46.54 87.04,-51.49"/>
</g>
<!-- Node4 -->
<g id="node4" class="node">
<title>Node4</title>
<g id="a_node4"><a xlink:href="main_8cpp.html" target="_top" xlink:title=" ">
<polygon fill="white" stroke="black" points="121,-0.5 121,-19.5 200,-19.5 200,-0.5 121,-0.5"/>
<text text-anchor="middle" x="160.5" y="-7.5" font-family="Helvetica,sans-Serif" font-size="10.00">src/main.cpp</text>
</a>
</g>
</g>
<!-- Node2&#45;&gt;Node4 -->
<g id="edge3" class="edge">
<title>Node2&#45;&gt;Node4</title>
<path fill="none" stroke="midnightblue" d="M121.79,-49C131.54,-39.43 143.55,-27.64 151.59,-19.75"/>
<polygon fill="midnightblue" stroke="midnightblue" points="119.27,-46.58 114.58,-56.08 124.17,-51.57 119.27,-46.58"/>
</g>
</g>
</svg>
